<svg width="26" height="26" viewBox="0 0 26 26" fill="none" xmlns="http://www.w3.org/2000/svg">
<rect x="1.05835" y="13.8517" width="22" height="1" fill="black"/>
<path d="M8.51421 16.8517C8.20088 16.8517 7.97754 16.7717 7.84421 16.6117C7.71088 16.4517 7.62754 16.2517 7.59421 16.0117H7.54421C7.43088 16.3117 7.24754 16.5484 6.99421 16.7217C6.74754 16.8884 6.41421 16.9717 5.99421 16.9717C5.45421 16.9717 5.02421 16.8317 4.70421 16.5517C4.38421 16.2717 4.22421 15.8884 4.22421 15.4017C4.22421 14.9217 4.39754 14.5517 4.74421 14.2917C5.09754 14.0317 5.66421 13.9017 6.44421 13.9017H7.54421V13.3917C7.54421 13.0117 7.43754 12.7284 7.22421 12.5417C7.01088 12.3484 6.70754 12.2517 6.31421 12.2517C5.96754 12.2517 5.68421 12.3217 5.46421 12.4617C5.24421 12.595 5.06754 12.7784 4.93421 13.0117L4.39421 12.6117C4.46088 12.4784 4.55088 12.3484 4.66421 12.2217C4.77754 12.095 4.91754 11.985 5.08421 11.8917C5.25088 11.7917 5.44088 11.715 5.65421 11.6617C5.86754 11.6017 6.10421 11.5717 6.36421 11.5717C6.97088 11.5717 7.45088 11.725 7.80421 12.0317C8.16421 12.3384 8.34421 12.765 8.34421 13.3117V16.1517H9.06421V16.8517H8.51421ZM6.13421 16.3017C6.34088 16.3017 6.52754 16.2784 6.69421 16.2317C6.86754 16.1784 7.01754 16.1117 7.14421 16.0317C7.27088 15.945 7.36754 15.845 7.43421 15.7317C7.50754 15.6117 7.54421 15.485 7.54421 15.3517V14.5017H6.44421C5.96421 14.5017 5.61421 14.5684 5.39421 14.7017C5.17421 14.835 5.06421 15.0284 5.06421 15.2817V15.4917C5.06421 15.7584 5.15754 15.9617 5.34421 16.1017C5.53754 16.235 5.80088 16.3017 6.13421 16.3017ZM10.5103 9.4517H11.3103V12.5317H11.3503C11.6836 11.8917 12.2136 11.5717 12.9403 11.5717C13.5736 11.5717 14.067 11.8084 14.4203 12.2817C14.7803 12.755 14.9603 13.4184 14.9603 14.2717C14.9603 15.125 14.7803 15.7884 14.4203 16.2617C14.067 16.735 13.5736 16.9717 12.9403 16.9717C12.2136 16.9717 11.6836 16.6517 11.3503 16.0117H11.3103V16.8517H10.5103V9.4517ZM12.6303 16.2617C13.097 16.2617 13.457 16.1217 13.7103 15.8417C13.9703 15.555 14.1003 15.1784 14.1003 14.7117V13.8317C14.1003 13.365 13.9703 12.9917 13.7103 12.7117C13.457 12.425 13.097 12.2817 12.6303 12.2817C12.4503 12.2817 12.2803 12.305 12.1203 12.3517C11.9603 12.3984 11.8203 12.4684 11.7003 12.5617C11.5803 12.6484 11.4836 12.7584 11.4103 12.8917C11.3436 13.0184 11.3103 13.1684 11.3103 13.3417V15.2017C11.3103 15.375 11.3436 15.5284 11.4103 15.6617C11.4836 15.7884 11.5803 15.8984 11.7003 15.9917C11.8203 16.0784 11.9603 16.145 12.1203 16.1917C12.2803 16.2384 12.4503 16.2617 12.6303 16.2617ZM18.7364 16.9717C18.3631 16.9717 18.0297 16.9084 17.7364 16.7817C17.4497 16.6484 17.2064 16.465 17.0064 16.2317C16.8064 15.9984 16.6531 15.715 16.5464 15.3817C16.4464 15.0484 16.3964 14.6784 16.3964 14.2717C16.3964 13.865 16.4497 13.495 16.5564 13.1617C16.6631 12.8284 16.8164 12.545 17.0164 12.3117C17.2164 12.0717 17.4597 11.8884 17.7464 11.7617C18.0331 11.635 18.3597 11.5717 18.7264 11.5717C19.2264 11.5717 19.6331 11.6817 19.9464 11.9017C20.2597 12.1217 20.4897 12.4084 20.6364 12.7617L19.9964 13.1017C19.9031 12.835 19.7464 12.6284 19.5264 12.4817C19.3131 12.335 19.0464 12.2617 18.7264 12.2617C18.4931 12.2617 18.2831 12.3017 18.0964 12.3817C17.9164 12.455 17.7631 12.5617 17.6364 12.7017C17.5097 12.8417 17.4131 13.0084 17.3464 13.2017C17.2864 13.395 17.2564 13.605 17.2564 13.8317V14.7117C17.2564 14.9384 17.2864 15.1484 17.3464 15.3417C17.4131 15.535 17.5097 15.7017 17.6364 15.8417C17.7631 15.9817 17.9197 16.0917 18.1064 16.1717C18.2931 16.245 18.5064 16.2817 18.7464 16.2817C19.0931 16.2817 19.3797 16.2017 19.6064 16.0417C19.8331 15.8817 20.0131 15.6617 20.1464 15.3817L20.7164 15.7717C20.5631 16.1184 20.3231 16.405 19.9964 16.6317C19.6764 16.8584 19.2564 16.9717 18.7364 16.9717Z" fill="black"/>
</svg>
